{"title":"The.Hunger.Games.Mockingjay.Part.1.2014.WEB.480p.x264-VYTO","uid":11708803,"size":431168550,"categoryP":"video","categoryS":"movies","magnet":"?xt=urn:btih:e8ed2bdff5329a32140d1769833efcbd4e04e61e&amp;dn=The.Hunger.Games.Mockingjay.Part.1.2014.WEB.480p.x264-VYTO&amp;tr=udp%3A%2F%2Ftracker.openbittorrent.com%3A80&amp;tr=udp%3A%2F%2Fopen.demonii.com%3A1337&amp;tr=udp%3A%2F%2Ftracker.coppersurfer.tk%3A6969&amp;tr=udp%3A%2F%2Fexodus.desync.com%3A6969","seeders":4,"leechers":2,"uploader":"ValidusVyto","files":6,"time":1424241445,"description":"The.Hunger.Games.Mockingjay.Part.1.2014.WEBRip.480p.x264-VYTO\n\n\nGenre: Adventure | Sci-Fi \nIMDb: http://www.imdb.com/title/tt1951265/\n\nFormat                                   : MPEG-4\nFile size                                : 402 MiB\nDuration                                 : 1h 57mn\nOverall bit rate                         : 477 Kbps\n\nVideo\nFormat                                   : AVC\nBit rate                                 : 426 Kbps\nWidth                                    : 720 pixels\nHeight                                   : 304 pixels\nDisplay aspect ratio                     : 2.35:1\nFrame rate mode                          : Constant\nFrame rate                               : 25.000 fps\nBit depth                                : 8 bits\nStream size                              : 359 MiB (89%)\nWriting library                          : x264 core 144 r2525kMod 40bb568\n\nAudio\nFormat                                   : AAC\nBit rate mode                            : Variable\nBit rate                                 : 48.0 Kbps\nChannel(s)                               : 2 channels\nChannel positions                        : Front: L R\nSampling rate                            : 48.0 KHz\nStream size                              : 40.4 MiB (10%)\nLanguage                                 : English\n\nSubtitle                                 : English\nSource                                   : 1080p.WEB-DL.DD5.1.H264\n &lt;a href=&quot;\nhttp://someimage.com/1FXEBTO&quot; rel=&quot;nofollow&quot; target=&quot;_NEW&quot;&gt;\nhttp://someimage.com/1FXEBTO&lt;/a&gt; &lt;a href=&quot;\nhttp://someimage.com/kDVnSFu&quot; rel=&quot;nofollow&quot; target=&quot;_NEW&quot;&gt;\nhttp://someimage.com/kDVnSFu&lt;/a&gt; &lt;a href=&quot;\nhttp://someimage.com/nv9U7jo&quot; rel=&quot;nofollow&quot; target=&quot;_NEW&quot;&gt;\nhttp://someimage.com/nv9U7jo&lt;/a&gt; &lt;a href=&quot;\nhttp://someimage.com/yle6ztl&quot; rel=&quot;nofollow&quot; target=&quot;_NEW&quot;&gt;\nhttp://someimage.com/yle6ztl&lt;/a&gt; &lt;a href=&quot;\nhttp://someimage.com/DXQwBDl&quot; rel=&quot;nofollow&quot; target=&quot;_NEW&quot;&gt;\nhttp://someimage.com/DXQwBDl&lt;/a&gt; &lt;a href=&quot;\nhttp://someimage.com/SWoLYog&quot; rel=&quot;nofollow&quot; target=&quot;_NEW&quot;&gt;\nhttp://someimage.com/SWoLYog&lt;/a&gt; &lt;a href=&quot;\nhttp://someimage.com/l3acnN1&quot; rel=&quot;nofollow&quot; target=&quot;_NEW&quot;&gt;\nhttp://someimage.com/l3acnN1&lt;/a&gt; &lt;a href=&quot;\nhttp://someimage.com/uRWdVtD&quot; rel=&quot;nofollow&quot; target=&quot;_NEW&quot;&gt;\nhttp://someimage.com/uRWdVtD&lt;/a&gt; &lt;a href=&quot;\nhttp://someimage.com/zi2Szzj&quot; rel=&quot;nofollow&quot; target=&quot;_NEW&quot;&gt;\nhttp://someimage.com/zi2Szzj&lt;/a&gt; &lt;a href=&quot;\nhttp://someimage.com/Ue4mpdN&quot; rel=&quot;nofollow&quot; target=&quot;_NEW&quot;&gt;\nhttp://someimage.com/Ue4mpdN&lt;/a&gt; &lt;a href=&quot;\nhttp://someimage.com/juUIxq3&quot; rel=&quot;nofollow&quot; target=&quot;_NEW&quot;&gt;\nhttp://someimage.com/juUIxq3&lt;/a&gt; &lt;a href=&quot;\nhttp://someimage.com/TqYpoMS&quot; rel=&quot;nofollow&quot; target=&quot;_NEW&quot;&gt;\nhttp://someimage.com/TqYpoMS&lt;/a&gt;\n\n----------------------------------------------------------------------------------------------------\n\n\nEncoder Notes: Looking For Early Access To Anything You Can Provide DVDScr, R5, DVDR, BluRay, Direct\nAudio, Music Releases and Seedboxes. If You Got anything to offer please contact us.\n\nWe require dedicated servers, so as to do more and fast releases of movies.\nSupport us by sending us LC - LezHMTo2cYaiztCCcWxB4cNFVNVpWW3GSx","torrent":{"xt":"urn:btih:e8ed2bdff5329a32140d1769833efcbd4e04e61e","amp;dn":"The.Hunger.Games.Mockingjay.Part.1.2014.WEB.480p.x264-VYTO","amp;tr":["udp%3A%2F%2Ftracker.openbittorrent.com%3A80","udp%3A%2F%2Fopen.demonii.com%3A1337","udp%3A%2F%2Ftracker.coppersurfer.tk%3A6969","udp%3A%2F%2Fexodus.desync.com%3A6969"],"infoHash":"e8ed2bdff5329a32140d1769833efcbd4e04e61e","infoHashBuffer":{"type":"Buffer","data":[232,237,43,223,245,50,154,50,20,13,23,105,131,62,252,189,78,4,230,30]},"announce":[],"urlList":[]}}